<svg class="svg-icon" style="width: 1em; height: 1em;vertical-align: middle;fill: currentColor;overflow: hidden;" viewBox="0 0 1024 1024" version="1.1" xmlns="http://www.w3.org/2000/svg"><path d="M514 912c-219.9 0-398.8-178.9-398.8-398.8S294.1 114.4 514 114.4s398.8 178.9 398.8 398.8S733.9 912 514 912z m0-701.5c-166.9 0-302.7 135.8-302.7 302.7 0 166.9 135.8 302.7 302.7 302.7s302.7-135.8 302.7-302.7c0-166.9-135.8-302.7-302.7-302.7z" fill="#BDD2EF" /><path d="M447.4 854.2c-76.3 0-136-51.5-136-117.3 0-63 54.7-112.9 126.3-117 5.3-0.3 9.7 3.9 9.7 9.2v97.2c0 6 5.7 10.6 11.4 8.9 0.3-0.1 0.6-0.2 0.8-0.3 3.7-1.2 6.2-4.8 6.2-8.7V246.9c0-64.7 77.6-97.7 124.2-52.8l144 138.7c23.4 22.5 24.1 59.7 1.6 83.1-22.5 23.4-59.7 24.1-83.1 1.6l-53.7-51.7c-5.8-5.6-15.5-1.5-15.5 6.6v364.7c0.1 65.5-59.7 117.1-135.9 117.1z" fill="#2867CE" /></svg>